<svg width="400" height="300" xmlns="http://www.w3.org/2000/svg">
  <!-- Background -->
  <rect width="400" height="300" fill="#f8f9fa" stroke="#dee2e6" stroke-width="2"/>
  
  <!-- Title -->
  <text x="200" y="30" text-anchor="middle" font-family="Arial, sans-serif" font-size="18" font-weight="bold" fill="#212529">
    Order Verification Guide
  </text>
  
  <!-- Barcode representation -->
  <rect x="100" y="80" width="200" height="60" fill="white" stroke="#6c757d" stroke-width="2"/>
  
  <!-- Barcode lines -->
  <rect x="110" y="90" width="2" height="40" fill="#000"/>
  <rect x="115" y="90" width="1" height="40" fill="#000"/>
  <rect x="118" y="90" width="2" height="40" fill="#000"/>
  <rect x="122" y="90" width="1" height="40" fill="#000"/>
  <rect x="125" y="90" width="2" height="40" fill="#000"/>
  <rect x="130" y="90" width="1" height="40" fill="#000"/>
  <rect x="133" y="90" width="2" height="40" fill="#000"/>
  <rect x="137" y="90" width="1" height="40" fill="#000"/>
  <rect x="140" y="90" width="2" height="40" fill="#000"/>
  <rect x="144" y="90" width="1" height="40" fill="#000"/>
  <rect x="147" y="90" width="2" height="40" fill="#000"/>
  <rect x="151" y="90" width="1" height="40" fill="#000"/>
  <rect x="154" y="90" width="2" height="40" fill="#000"/>
  <rect x="158" y="90" width="1" height="40" fill="#000"/>
  <rect x="161" y="90" width="2" height="40" fill="#000"/>
  <rect x="165" y="90" width="1" height="40" fill="#000"/>
  <rect x="168" y="90" width="2" height="40" fill="#000"/>
  <rect x="172" y="90" width="1" height="40" fill="#000"/>
  <rect x="175" y="90" width="2" height="40" fill="#000"/>
  <rect x="179" y="90" width="1" height="40" fill="#000"/>
  <rect x="182" y="90" width="2" height="40" fill="#000"/>
  <rect x="186" y="90" width="1" height="40" fill="#000"/>
  <rect x="189" y="90" width="2" height="40" fill="#000"/>
  <rect x="193" y="90" width="1" height="40" fill="#000"/>
  <rect x="196" y="90" width="2" height="40" fill="#000"/>
  <rect x="200" y="90" width="1" height="40" fill="#000"/>
  <rect x="203" y="90" width="2" height="40" fill="#000"/>
  <rect x="207" y="90" width="1" height="40" fill="#000"/>
  <rect x="210" y="90" width="2" height="40" fill="#000"/>
  <rect x="214" y="90" width="1" height="40" fill="#000"/>
  <rect x="217" y="90" width="2" height="40" fill="#000"/>
  <rect x="221" y="90" width="1" height="40" fill="#000"/>
  <rect x="224" y="90" width="2" height="40" fill="#000"/>
  <rect x="228" y="90" width="1" height="40" fill="#000"/>
  <rect x="231" y="90" width="2" height="40" fill="#000"/>
  <rect x="235" y="90" width="1" height="40" fill="#000"/>
  <rect x="238" y="90" width="2" height="40" fill="#000"/>
  <rect x="242" y="90" width="1" height="40" fill="#000"/>
  <rect x="245" y="90" width="2" height="40" fill="#000"/>
  <rect x="249" y="90" width="1" height="40" fill="#000"/>
  <rect x="252" y="90" width="2" height="40" fill="#000"/>
  <rect x="256" y="90" width="1" height="40" fill="#000"/>
  <rect x="259" y="90" width="2" height="40" fill="#000"/>
  <rect x="263" y="90" width="1" height="40" fill="#000"/>
  <rect x="266" y="90" width="2" height="40" fill="#000"/>
  <rect x="270" y="90" width="1" height="40" fill="#000"/>
  <rect x="273" y="90" width="2" height="40" fill="#000"/>
  <rect x="277" y="90" width="1" height="40" fill="#000"/>
  <rect x="280" y="90" width="2" height="40" fill="#000"/>
  <rect x="284" y="90" width="1" height="40" fill="#000"/>
  <rect x="287" y="90" width="2" height="40" fill="#000"/>
  <rect x="291" y="90" width="1" height="40" fill="#000"/>
  
  <!-- Barcode numbers -->
  <text x="200" y="160" text-anchor="middle" font-family="monospace" font-size="12" fill="#000">123456789012</text>
  
  <!-- Order details -->
  <rect x="80" y="180" width="240" height="80" fill="white" stroke="#6c757d" stroke-width="1"/>
  <text x="200" y="200" text-anchor="middle" font-family="Arial, sans-serif" font-size="14" font-weight="bold" fill="#212529">
    Order Details to Verify
  </text>
  <text x="90" y="220" font-family="Arial, sans-serif" font-size="12" fill="#495057">
    • Order number matches barcode
  </text>
  <text x="90" y="235" font-family="Arial, sans-serif" font-size="12" fill="#495057">
    • Retailer: Dick's Sporting Goods
  </text>
  <text x="90" y="250" font-family="Arial, sans-serif" font-size="12" fill="#495057">
    • Items match order manifest
  </text>
  
  <!-- Warning -->
  <text x="200" y="285" text-anchor="middle" font-family="Arial, sans-serif" font-size="12" fill="#dc3545" font-weight="bold">
    ❌ Wrong order = $500+ processing fee + reprocessing time
  </text>
</svg>
